# xmcd
#
# Track frame offsets:
#	150
#	17786
#	27260
#	38843
#	49917
#	62937
#	71448
#	91277
#	102345
#	115138
#
# Disc length: 1685 seconds
#
# Revision: 1
# Processed by: cddbd v1.5.1PL0 Copyright (c) Steve Scherf et al.
# Submitted via: audiograbber 1.81.03
#
DISCID=8306930a
DTITLE=Kingsmen - The Old and The New
DYEAR=1900
DGENRE=Gospel
TTITLE0=Golden Toys
TTITLE1=Sing the Glory Down
TTITLE2=Hide Thou Me
TTITLE3=How About You
TTITLE4=One Day At A Time
TTITLE5=More To Go To Heaven For
TTITLE6=Land Of Beulah
TTITLE7=On The Way Home
TTITLE8=What A Beautiful Day
TTITLE9=Beause He Lives
EXTD=
EXTT0=
EXTT1=
EXTT2=
EXTT3=
EXTT4=
EXTT5=
EXTT6=
EXTT7=
EXTT8=
EXTT9=
PLAYORDER=
